<svg width="173" height="173" viewBox="0 0 173 173" fill="none" xmlns="http://www.w3.org/2000/svg">
<rect width="173" height="173" rx="52" fill="url(#paint0_linear_727_65294)"/>
<path d="M123.226 50.8323C122.694 50.2993 122.062 49.8764 121.367 49.5878C120.671 49.2993 119.926 49.1508 119.173 49.1508C118.419 49.1508 117.674 49.2993 116.978 49.5878C116.283 49.8764 115.651 50.2993 115.119 50.8323L87.0013 78.8923L58.8838 50.7748C58.3514 50.2425 57.7195 49.8202 57.0239 49.5321C56.3284 49.244 55.5829 49.0957 54.83 49.0957C54.0772 49.0957 53.3317 49.244 52.6362 49.5321C51.9406 49.8202 51.3086 50.2425 50.7763 50.7748C50.2439 51.3072 49.8217 51.9392 49.5336 52.6347C49.2455 53.3302 49.0972 54.0757 49.0972 54.8286C49.0972 55.5814 49.2455 56.3269 49.5336 57.0224C49.8217 57.718 50.2439 58.35 50.7763 58.8823L78.8938 86.9998L50.7763 115.117C50.2439 115.65 49.8217 116.282 49.5336 116.977C49.2455 117.673 49.0972 118.418 49.0972 119.171C49.0972 119.924 49.2455 120.669 49.5336 121.365C49.8217 122.06 50.2439 122.692 50.7763 123.225C51.3086 123.757 51.9406 124.179 52.6362 124.468C53.3317 124.756 54.0772 124.904 54.83 124.904C55.5829 124.904 56.3284 124.756 57.0239 124.468C57.7195 124.179 58.3514 123.757 58.8838 123.225L87.0013 95.1073L115.119 123.225C115.651 123.757 116.283 124.179 116.979 124.468C117.674 124.756 118.42 124.904 119.173 124.904C119.925 124.904 120.671 124.756 121.366 124.468C122.062 124.179 122.694 123.757 123.226 123.225C123.759 122.692 124.181 122.06 124.469 121.365C124.757 120.669 124.905 119.924 124.905 119.171C124.905 118.418 124.757 117.673 124.469 116.977C124.181 116.282 123.759 115.65 123.226 115.117L95.1088 86.9998L123.226 58.8823C125.411 56.6973 125.411 53.0173 123.226 50.8323Z" fill="white"/>
<defs>
<linearGradient id="paint0_linear_727_65294" x1="18" y1="14" x2="156" y2="161.5" gradientUnits="userSpaceOnUse">
<stop stop-color="#E0A396"/>
<stop offset="1" stop-color="#C65940"/>
</linearGradient>
</defs>
</svg>
